<svg xmlns="http://www.w3.org/2000/svg" width="50" height="59.175" viewBox="0 0 50 59.175"><g transform="translate(0 0)"><g transform="translate(27.888 14.869)"><g transform="translate(1.224 36.291)"><rect width="19.007" height="3.781" rx="1.891" transform="translate(0.113 0.112)" fill="#fff"/><path d="M194.979,308.485a1.031,1.031,0,0,1,1.028,1.028v1.5a1.03,1.03,0,0,1-1.028,1.028H178.255a1.03,1.03,0,0,1-1.028-1.028v-1.5a1.031,1.031,0,0,1,1.028-1.028h16.724m0-.229H178.255A1.257,1.257,0,0,0,177,309.517v1.5a1.257,1.257,0,0,0,1.255,1.257h16.724a1.257,1.257,0,0,0,1.255-1.257v-1.5A1.257,1.257,0,0,0,194.979,308.26Z" transform="translate(-177 -308.26)" fill="#808285"/></g><g transform="translate(2.878 32.215)"><rect width="19.007" height="3.781" rx="1.891" transform="translate(0.113 0.115)" fill="#fff"/><path d="M205.039,283.709a1.03,1.03,0,0,1,1.028,1.028v1.5a1.03,1.03,0,0,1-1.028,1.028H188.315a1.03,1.03,0,0,1-1.028-1.028v-1.5a1.03,1.03,0,0,1,1.028-1.028h16.724m0-.229H188.315a1.257,1.257,0,0,0-1.255,1.257v1.5a1.257,1.257,0,0,0,1.255,1.257h16.724a1.257,1.257,0,0,0,1.255-1.257v-1.5A1.257,1.257,0,0,0,205.039,283.48Z" transform="translate(-187.06 -283.48)" fill="#808285"/></g><g transform="translate(0.12 28.206)"><rect width="19.007" height="3.781" rx="1.891" transform="translate(0.113 0.115)" fill="#fff"/><path d="M188.269,259.329a1.03,1.03,0,0,1,1.028,1.028v1.5a1.028,1.028,0,0,1-1.028,1.028H171.547a1.028,1.028,0,0,1-1.028-1.028v-1.5a1.03,1.03,0,0,1,1.028-1.028h16.722m0-.229H171.547a1.257,1.257,0,0,0-1.257,1.257v1.5a1.257,1.257,0,0,0,1.257,1.257h16.722a1.257,1.257,0,0,0,1.257-1.257v-1.5A1.257,1.257,0,0,0,188.269,259.1Z" transform="translate(-170.29 -259.1)" fill="#808285"/></g><g transform="translate(1.516 24.136)"><rect width="19.007" height="3.781" rx="1.891" transform="translate(0.113 0.11)" fill="#fff"/><path d="M196.759,234.585a1.03,1.03,0,0,1,1.028,1.028v1.5a1.03,1.03,0,0,1-1.028,1.028H180.035a1.028,1.028,0,0,1-1.026-1.028v-1.493a1.028,1.028,0,0,1,1.026-1.028h16.724m0-.229H180.035a1.257,1.257,0,0,0-1.255,1.257v1.5a1.257,1.257,0,0,0,1.255,1.257h16.724a1.257,1.257,0,0,0,1.257-1.257v-1.5A1.257,1.257,0,0,0,196.759,234.36Z" transform="translate(-178.78 -234.36)" fill="#808285"/></g><g transform="translate(0.551 20.067)"><rect width="19.007" height="3.781" rx="1.891" transform="translate(0.113 0.107)" fill="#fff"/><path d="M190.889,209.847a1.03,1.03,0,0,1,1.028,1.028v1.5a1.028,1.028,0,0,1-1.028,1.026H174.167a1.028,1.028,0,0,1-1.028-1.026v-1.5a1.03,1.03,0,0,1,1.028-1.028h16.722m0-.227H174.167a1.257,1.257,0,0,0-1.257,1.255v1.5a1.257,1.257,0,0,0,1.257,1.255h16.722a1.257,1.257,0,0,0,1.257-1.255v-1.5A1.257,1.257,0,0,0,190.889,209.62Z" transform="translate(-172.91 -209.62)" fill="#808285"/></g><g transform="translate(2.067 16.051)"><rect width="19.007" height="3.781" rx="1.891" transform="translate(0.115 0.113)" fill="#fff"/><path d="M200.109,185.429a1.028,1.028,0,0,1,1.028,1.028v1.5a1.028,1.028,0,0,1-1.028,1.028H183.387a1.028,1.028,0,0,1-1.028-1.028v-1.5a1.028,1.028,0,0,1,1.028-1.028h16.722m0-.229H183.387a1.257,1.257,0,0,0-1.257,1.257v1.5a1.257,1.257,0,0,0,1.257,1.257h16.722a1.257,1.257,0,0,0,1.257-1.257v-1.5A1.257,1.257,0,0,0,200.109,185.2Z" transform="translate(-182.13 -185.2)" fill="#808285"/></g><g transform="translate(0 12.041)"><rect width="19.007" height="3.781" rx="1.891" transform="translate(0.113 0.115)" fill="#fff"/><path d="M187.539,161.049a1.028,1.028,0,0,1,1.026,1.028v1.5a1.028,1.028,0,0,1-1.026,1.028H170.815a1.03,1.03,0,0,1-1.028-1.028v-1.5a1.03,1.03,0,0,1,1.028-1.028h16.724m0-.229H170.815a1.257,1.257,0,0,0-1.255,1.257v1.5a1.257,1.257,0,0,0,1.255,1.257h16.724a1.257,1.257,0,0,0,1.255-1.257v-1.5A1.257,1.257,0,0,0,187.539,160.82Z" transform="translate(-169.56 -160.82)" fill="#808285"/></g><g transform="translate(0.625 8.033)"><rect width="19.007" height="3.781" rx="1.891" transform="translate(0.109 0.113)" fill="#fff"/><path d="M191.334,136.679a1.03,1.03,0,0,1,1.028,1.026v1.5a1.031,1.031,0,0,1-1.028,1.028H174.617a1.03,1.03,0,0,1-1.028-1.028v-1.5a1.028,1.028,0,0,1,1.028-1.026h16.717m0-.229H174.617a1.257,1.257,0,0,0-1.257,1.255v1.5a1.257,1.257,0,0,0,1.257,1.255h16.717a1.257,1.257,0,0,0,1.257-1.255v-1.5A1.257,1.257,0,0,0,191.334,136.45Z" transform="translate(-173.36 -136.45)" fill="#808285"/></g><g transform="translate(2.452 4.023)"><rect width="19.007" height="3.781" rx="1.891" transform="translate(0.113 0.113)" fill="#fff"/><path d="M202.449,112.3a1.03,1.03,0,0,1,1.028,1.028v1.5a1.03,1.03,0,0,1-1.028,1.028H185.725a1.028,1.028,0,0,1-1.026-1.028v-1.5a1.028,1.028,0,0,1,1.026-1.028h16.724m0-.229H185.725a1.257,1.257,0,0,0-1.255,1.257v1.5a1.257,1.257,0,0,0,1.255,1.257h16.724a1.255,1.255,0,0,0,1.255-1.257v-1.5a1.255,1.255,0,0,0-1.255-1.257Z" transform="translate(-184.47 -112.07)" fill="#808285"/></g><g transform="translate(2.326)"><rect width="19.007" height="3.781" rx="1.891" transform="translate(0.115 0.122)" fill="#fff"/><path d="M201.677,87.839a1.03,1.03,0,0,1,1.028,1.028v1.5a1.028,1.028,0,0,1-1.028,1.028h-16.72a1.028,1.028,0,0,1-1.028-1.028v-1.5a1.03,1.03,0,0,1,1.028-1.028h16.72m0-.229h-16.72a1.257,1.257,0,0,0-1.257,1.257v1.5a1.257,1.257,0,0,0,1.257,1.257h16.72a1.257,1.257,0,0,0,1.257-1.257v-1.5a1.257,1.257,0,0,0-1.257-1.25Z" transform="translate(-183.7 -87.61)" fill="#808285"/></g></g><g transform="translate(0 17.714)"><g transform="translate(1.224 36.281)"><rect width="19.007" height="3.781" rx="1.891" transform="translate(0.113 0.113)" fill="#fff"/><path d="M25.419,325.729a1.028,1.028,0,0,1,1.028,1.028v1.5a1.028,1.028,0,0,1-1.028,1.028H8.7a1.028,1.028,0,0,1-1.028-1.028v-1.5A1.028,1.028,0,0,1,8.7,325.729H25.419m0-.229H8.7a1.257,1.257,0,0,0-1.257,1.257v1.5A1.257,1.257,0,0,0,8.7,329.51H25.419a1.257,1.257,0,0,0,1.257-1.257v-1.5A1.257,1.257,0,0,0,25.419,325.5Z" transform="translate(-7.44 -325.5)" fill="#808285"/></g><g transform="translate(2.878 32.209)"><rect width="19.007" height="3.781" rx="1.891" transform="translate(0.113 0.113)" fill="#fff"/><path d="M35.479,300.967a1.03,1.03,0,0,1,1.028,1.028v1.5a1.028,1.028,0,0,1-1.028,1.026H18.757a1.028,1.028,0,0,1-1.028-1.026v-1.5a1.03,1.03,0,0,1,1.028-1.028H35.479m0-.227H18.757a1.257,1.257,0,0,0-1.257,1.255v1.5a1.257,1.257,0,0,0,1.257,1.255H35.479a1.257,1.257,0,0,0,1.257-1.255v-1.5a1.257,1.257,0,0,0-1.257-1.255Z" transform="translate(-17.5 -300.74)" fill="#808285"/></g><g transform="translate(0.12 28.199)"><rect width="19.007" height="3.781" rx="1.891" transform="translate(0.115 0.113)" fill="#fff"/><path d="M18.7,276.589a1.028,1.028,0,0,1,1.028,1.028v1.5a1.03,1.03,0,0,1-1.028,1.028H1.987a1.031,1.031,0,0,1-1.028-1.028v-1.5a1.03,1.03,0,0,1,1.028-1.028H18.7m0-.229H1.987A1.257,1.257,0,0,0,.73,277.617v1.5a1.257,1.257,0,0,0,1.257,1.257H18.7a1.257,1.257,0,0,0,1.257-1.257v-1.5A1.257,1.257,0,0,0,18.7,276.36Z" transform="translate(-0.73 -276.36)" fill="#808285"/></g><g transform="translate(1.516 24.13)"><rect width="19.007" height="3.781" rx="1.891" transform="translate(0.115 0.11)" fill="#fff"/><path d="M27.2,251.847a1.03,1.03,0,0,1,1.028,1.028v1.5A1.028,1.028,0,0,1,27.2,255.4H10.477a1.028,1.028,0,0,1-1.028-1.026v-1.5a1.03,1.03,0,0,1,1.028-1.028H27.2m0-.227H10.477a1.255,1.255,0,0,0-1.257,1.255v1.5a1.257,1.257,0,0,0,1.257,1.257H27.2a1.257,1.257,0,0,0,1.257-1.255v-1.5a1.255,1.255,0,0,0-1.257-1.255Z" transform="translate(-9.22 -251.62)" fill="#808285"/></g><g transform="translate(0.553 20.053)"><rect width="19.007" height="3.781" rx="1.891" transform="translate(0.113 0.115)" fill="#fff"/><path d="M21.337,227.059a1.028,1.028,0,0,1,1.028,1.028v1.5a1.028,1.028,0,0,1-1.028,1.028H4.617a1.028,1.028,0,0,1-1.028-1.028v-1.5a1.028,1.028,0,0,1,1.028-1.028h16.72m0-.229H4.617a1.257,1.257,0,0,0-1.257,1.257v1.5a1.257,1.257,0,0,0,1.257,1.257h16.72a1.257,1.257,0,0,0,1.257-1.257v-1.5a1.257,1.257,0,0,0-1.257-1.257Z" transform="translate(-3.36 -226.83)" fill="#808285"/></g><g transform="translate(2.067 16.044)"><rect width="19.007" height="3.781" rx="1.891" transform="translate(0.115 0.113)" fill="#fff"/><path d="M30.55,202.687a1.03,1.03,0,0,1,1.026,1.028v1.5a1.028,1.028,0,0,1-1.026,1.026H13.827a1.03,1.03,0,0,1-1.021-1.026v-1.5a1.031,1.031,0,0,1,1.028-1.028H30.55m0-.227H13.827a1.255,1.255,0,0,0-1.257,1.255v1.5a1.257,1.257,0,0,0,1.257,1.255H30.55a1.257,1.257,0,0,0,1.255-1.255v-1.5A1.255,1.255,0,0,0,30.55,202.46Z" transform="translate(-12.57 -202.46)" fill="#808285"/></g><g transform="translate(0 12.035)"><rect width="19.007" height="3.781" rx="1.891" transform="translate(0.113 0.113)" fill="#fff"/><path d="M17.979,178.309a1.028,1.028,0,0,1,1.028,1.028v1.5a1.03,1.03,0,0,1-1.028,1.028H1.257a1.03,1.03,0,0,1-1.028-1.028v-1.5a1.028,1.028,0,0,1,1.028-1.028H17.979m0-.229H1.257A1.257,1.257,0,0,0,0,179.337v1.5a1.257,1.257,0,0,0,1.257,1.257H17.979a1.257,1.257,0,0,0,1.257-1.257v-1.5A1.257,1.257,0,0,0,17.979,178.08Z" transform="translate(0 -178.08)" fill="#808285"/></g><g transform="translate(0.62 8.025)"><rect width="19.007" height="3.781" rx="1.891" transform="translate(0.115 0.115)" fill="#fff"/><path d="M21.749,153.929a1.028,1.028,0,0,1,1.028,1.028v1.5a1.028,1.028,0,0,1-1.028,1.028H5.027A1.028,1.028,0,0,1,4,156.453v-1.5a1.028,1.028,0,0,1,1.028-1.028H21.749m0-.229H5.027a1.257,1.257,0,0,0-1.257,1.257v1.5a1.257,1.257,0,0,0,1.257,1.257H21.749a1.257,1.257,0,0,0,1.257-1.257v-1.5A1.257,1.257,0,0,0,21.749,153.7Z" transform="translate(-3.77 -153.7)" fill="#808285"/></g><g transform="translate(2.452 4.023)"><rect width="19.007" height="3.781" rx="1.891" transform="translate(0.113 0.107)" fill="#fff"/><path d="M32.889,129.59a1.03,1.03,0,0,1,1.028,1.028v1.5a1.028,1.028,0,0,1-1.028,1.026H16.167a1.028,1.028,0,0,1-1.028-1.026v-1.492a1.03,1.03,0,0,1,1.028-1.028H32.889m0-.227H16.167a1.257,1.257,0,0,0-1.257,1.255v1.5a1.257,1.257,0,0,0,1.257,1.255H32.889a1.257,1.257,0,0,0,1.257-1.255v-1.5A1.257,1.257,0,0,0,32.889,129.37Z" transform="translate(-14.91 -129.37)" fill="#808285"/></g><g transform="translate(2.327)"><rect width="19.007" height="3.781" rx="1.891" transform="translate(0.113 0.113)" fill="#fff"/><path d="M32.129,105.139a1.03,1.03,0,0,1,1.028,1.028v1.5a1.03,1.03,0,0,1-1.028,1.028H15.4a1.028,1.028,0,0,1-1.026-1.028v-1.5a1.028,1.028,0,0,1,1.026-1.028H32.129m0-.229H15.4a1.257,1.257,0,0,0-1.255,1.257v1.5A1.257,1.257,0,0,0,15.4,108.92H32.129a1.255,1.255,0,0,0,1.255-1.257v-1.5a1.255,1.255,0,0,0-1.255-1.257Z" transform="translate(-14.15 -104.91)" fill="#808285"/></g></g><g transform="translate(21.865 47.148)"><rect width="19.007" height="3.781" rx="1.891" transform="translate(0.115 0.113)" fill="#fff"/><path d="M150.919,284.1a1.028,1.028,0,0,1,1.028,1.028v1.5a1.03,1.03,0,0,1-1.028,1.028H134.2a1.03,1.03,0,0,1-1.028-1.028v-1.5A1.028,1.028,0,0,1,134.2,284.1h16.722m0-.229H134.2a1.257,1.257,0,0,0-1.257,1.257v1.5a1.255,1.255,0,0,0,1.257,1.255h16.722a1.255,1.255,0,0,0,1.257-1.255v-1.5a1.257,1.257,0,0,0-1.257-1.257Z" transform="translate(-132.94 -283.87)" fill="#808285"/></g><g transform="translate(22.969 55.165)"><rect width="19.007" height="3.781" rx="1.891" transform="translate(0.113 0.117)" fill="#fff"/><path d="M157.635,332.839a1.028,1.028,0,0,1,1.028,1.028v1.5a1.028,1.028,0,0,1-1.028,1.028H140.907a1.028,1.028,0,0,1-1.028-1.028v-1.5a1.028,1.028,0,0,1,1.028-1.028h16.729m0-.229H140.907a1.257,1.257,0,0,0-1.257,1.257v1.5a1.257,1.257,0,0,0,1.257,1.257h16.729a1.257,1.257,0,0,0,1.257-1.257v-1.5A1.257,1.257,0,0,0,157.635,332.61Z" transform="translate(-139.65 -332.61)" fill="#808285"/></g><g transform="translate(24.038 51.16)"><rect width="19.007" height="3.781" rx="1.891" transform="translate(0.113 0.112)" fill="#fff"/><path d="M164.129,308.485a1.031,1.031,0,0,1,1.028,1.028v1.5a1.03,1.03,0,0,1-1.028,1.028H147.4a1.028,1.028,0,0,1-1.026-1.028v-1.5a1.03,1.03,0,0,1,1.026-1.028h16.724m0-.229H147.4a1.257,1.257,0,0,0-1.255,1.257v1.5a1.257,1.257,0,0,0,1.255,1.257h16.724a1.255,1.255,0,0,0,1.255-1.257v-1.5a1.255,1.255,0,0,0-1.255-1.257Z" transform="translate(-146.15 -308.26)" fill="#808285"/></g><g transform="translate(23.495 43.168)"><rect width="19.007" height="3.781" rx="1.891" transform="translate(0.113 0.113)" fill="#fff"/><path d="M160.829,259.9a1.03,1.03,0,0,1,1.028,1.026v1.5a1.03,1.03,0,0,1-1.028,1.026H144.1a1.03,1.03,0,0,1-1.028-1.026v-1.5A1.03,1.03,0,0,1,144.1,259.9h16.724m0-.229H144.1a1.257,1.257,0,0,0-1.255,1.255v1.5a1.257,1.257,0,0,0,1.255,1.255h16.724a1.257,1.257,0,0,0,1.255-1.255v-1.5A1.257,1.257,0,0,0,160.829,259.67Z" transform="translate(-142.85 -259.67)" fill="#808285"/></g><g transform="translate(22.804 39.181)"><rect width="19.007" height="3.781" rx="1.891" transform="translate(0.115 0.115)" fill="#fff"/><path d="M156.635,235.659a1.028,1.028,0,0,1,1.026,1.028v1.5a1.028,1.028,0,0,1-1.026,1.028H139.907a1.03,1.03,0,0,1-1.028-1.028v-1.5a1.03,1.03,0,0,1,1.028-1.028h16.729m0-.229H139.907a1.257,1.257,0,0,0-1.257,1.257v1.5a1.257,1.257,0,0,0,1.257,1.257h16.729a1.257,1.257,0,0,0,1.255-1.257v-1.5A1.257,1.257,0,0,0,156.635,235.43Z" transform="translate(-138.65 -235.43)" fill="#808285"/></g><g transform="translate(3.162)"><g transform="translate(0)"><ellipse cx="8.289" cy="8.289" rx="8.289" ry="8.289" transform="translate(0 1.65) rotate(-5.711)" fill="#fff"/><path d="M30.319.686a7.906,7.906,0,1,1-7.913,7.9,7.906,7.906,0,0,1,7.913-7.9m0-.686A8.592,8.592,0,1,0,38.9,8.589,8.592,8.592,0,0,0,30.319,0Z" transform="translate(-21.31 0.459)" fill="#d1d3d4"/></g><path d="M60.381,22.408a2.65,2.65,0,0,0-.952-.852,8.354,8.354,0,0,0-1.849-.691,5.028,5.028,0,0,1-1.775-.77,1.372,1.372,0,0,1-.554-1.13,1.447,1.447,0,0,1,.617-1.212,2.676,2.676,0,0,1,1.663-.474,2.478,2.478,0,0,1,1.706.564,1.906,1.906,0,0,1,.635,1.5h.771a2.556,2.556,0,0,0-.391-1.385,2.643,2.643,0,0,0-1.105-.97,3.359,3.359,0,0,0-.972-.294V15.17H57.022v1.5a3.29,3.29,0,0,0-1.681.615,2.1,2.1,0,0,0,.074,3.428,6.6,6.6,0,0,0,2.039.863,5.644,5.644,0,0,1,1.936.834,1.559,1.559,0,0,1-.112,2.431,2.822,2.822,0,0,1-1.7.467,3.035,3.035,0,0,1-1.906-.554,1.809,1.809,0,0,1-.715-1.513H54.2a2.477,2.477,0,0,0,.414,1.414,2.7,2.7,0,0,0,1.214.959,4.252,4.252,0,0,0,1.192.306v1.447H58.17V25.918A3.319,3.319,0,0,0,59.84,25.3a2.048,2.048,0,0,0,.855-1.719A2.138,2.138,0,0,0,60.381,22.408Z" transform="translate(-48.446 -12.216)" fill="#a7a9ac"/></g><g transform="translate(23.246 21.95)"><g transform="translate(0 0)"><ellipse cx="8.248" cy="8.248" rx="8.248" ry="8.248" transform="translate(0 16.455) rotate(-85.93)" fill="#fff"/><path d="M151.254,132.684a7.906,7.906,0,1,1-7.906,7.906,7.906,7.906,0,0,1,7.906-7.906m0-.684a8.592,8.592,0,1,0,8.59,8.591,8.592,8.592,0,0,0-8.59-8.591Z" transform="translate(-142.442 -131.78)" fill="#d1d3d4"/></g><path d="M181.346,154.392a2.62,2.62,0,0,0-.942-.852,8.353,8.353,0,0,0-1.849-.691,5.088,5.088,0,0,1-1.775-.77,1.372,1.372,0,0,1-.554-1.13,1.447,1.447,0,0,1,.617-1.212,2.637,2.637,0,0,1,1.653-.474,2.469,2.469,0,0,1,1.706.566,1.906,1.906,0,0,1,.635,1.5h.771a2.554,2.554,0,0,0-.391-1.388,2.643,2.643,0,0,0-1.105-.97,3.358,3.358,0,0,0-.972-.294V147.15h-1.151v1.5a3.289,3.289,0,0,0-1.678.622,2.092,2.092,0,0,0,.066,3.421,6.779,6.779,0,0,0,2.054.863,5.6,5.6,0,0,1,1.936.834,1.559,1.559,0,0,1-.112,2.431,2.823,2.823,0,0,1-1.7.467,3.027,3.027,0,0,1-1.9-.554,1.809,1.809,0,0,1-.717-1.513h-.765a2.48,2.48,0,0,0,.413,1.413,2.686,2.686,0,0,0,1.215.959,4.173,4.173,0,0,0,1.191.308v1.446h1.151V157.9a3.311,3.311,0,0,0,1.669-.613,2.051,2.051,0,0,0,.857-1.719A2.138,2.138,0,0,0,181.346,154.392Z" transform="translate(-169.604 -144.439)" fill="#a7a9ac"/></g></g></svg>