<svg xmlns="http://www.w3.org/2000/svg" width="23.333" height="24" viewBox="0 0 23.333 24"><g transform="translate(-3 1)"><path d="M25.333,24a1,1,0,0,1-1-1V20.333A4.338,4.338,0,0,0,20,16H9.333A4.333,4.333,0,0,0,5,20.333V23a1,1,0,0,1-2,0V20.333A6.333,6.333,0,0,1,9.333,14H20a6.341,6.341,0,0,1,6.333,6.333V23A1,1,0,0,1,25.333,24Z" transform="translate(0 -1)" fill="#172026"/><path d="M5-1A6,6,0,1,1-1,5,6.007,6.007,0,0,1,5-1ZM5,9A4,4,0,1,0,1,5,4,4,0,0,0,5,9Z" transform="translate(9.333)" fill="#172026"/></g></svg>